<svg width="188" height="29" viewBox="0 0 188 29" fill="none" xmlns="http://www.w3.org/2000/svg">
<path d="M1.29119 21.4851V8.3942H6.30256C7.24858 8.3942 8.0348 8.54335 8.66122 8.84164C9.2919 9.13568 9.76278 9.53837 10.0739 10.0497C10.3892 10.5611 10.5469 11.1406 10.5469 11.7884C10.5469 12.321 10.4446 12.777 10.2401 13.1563C10.0355 13.5313 9.76065 13.836 9.41548 14.0703C9.07031 14.3047 8.68466 14.473 8.25852 14.5753V14.7031C8.72301 14.7287 9.16832 14.8715 9.59446 15.1314C10.0249 15.3871 10.3764 15.7493 10.6491 16.2181C10.9219 16.6868 11.0582 17.2536 11.0582 17.9183C11.0582 18.5959 10.8942 19.2053 10.5661 19.7465C10.2379 20.2834 9.74361 20.7074 9.0831 21.0185C8.42259 21.3296 7.59162 21.4851 6.5902 21.4851H1.29119ZM3.66264 19.5036H6.21307C7.07386 19.5036 7.69389 19.3395 8.07315 19.0114C8.45668 18.679 8.64844 18.2529 8.64844 17.733C8.64844 17.3452 8.55256 16.9958 8.3608 16.6847C8.16903 16.3693 7.89631 16.1222 7.54261 15.9432C7.18892 15.76 6.76705 15.6683 6.27699 15.6683H3.66264V19.5036ZM3.66264 13.9617H6.00852C6.41761 13.9617 6.78622 13.8871 7.11435 13.7379C7.44247 13.5845 7.70028 13.3693 7.88778 13.0924C8.07955 12.8111 8.17543 12.4787 8.17543 12.0952C8.17543 11.5881 7.99645 11.1705 7.63849 10.8424C7.2848 10.5142 6.75852 10.3502 6.05966 10.3502H3.66264V13.9617ZM14.0972 25.1669C13.7819 25.1669 13.49 25.1414 13.2215 25.0902C12.9573 25.0433 12.7464 24.9879 12.5887 24.924L13.1256 23.1215C13.4623 23.2195 13.7627 23.2664 14.0269 23.2621C14.2911 23.2578 14.5233 23.1747 14.7236 23.0128C14.9282 22.8551 15.1008 22.5909 15.2414 22.2202L15.4395 21.6897L11.8792 11.6669H14.3337L16.5965 19.0817H16.6988L18.9679 11.6669H21.4289L17.4978 22.674C17.3145 23.1939 17.0716 23.6392 16.7691 24.01C16.4665 24.385 16.0958 24.6705 15.6569 24.8665C15.2222 25.0668 14.7023 25.1669 14.0972 25.1669ZM28.5583 21.4851H26.0271L30.6357 8.3942H33.5633L38.1783 21.4851H35.6471L32.1506 11.0789H32.0484L28.5583 21.4851ZM28.6414 16.3523H35.5448V18.2571H28.6414V16.3523ZM39.5426 8.3942H42.4446L46.331 17.88H46.4844L50.3707 8.3942H53.2727V21.4851H50.9971V12.4915H50.8757L47.2578 21.4468H45.5575L41.9396 12.4723H41.8182V21.4851H39.5426V8.3942ZM59.4721 21.4851V19.772L64.0168 15.3168C64.4515 14.8779 64.8137 14.4879 65.1035 14.147C65.3933 13.8061 65.6106 13.4759 65.7555 13.1563C65.9004 12.8367 65.9728 12.4958 65.9728 12.1335C65.9728 11.7202 65.8791 11.3665 65.6916 11.0725C65.5041 10.7742 65.2463 10.5441 64.9181 10.3821C64.59 10.2202 64.2171 10.1392 63.7995 10.1392C63.3691 10.1392 62.992 10.2287 62.6681 10.4077C62.3443 10.5824 62.0928 10.8317 61.9139 11.1556C61.7391 11.4794 61.6518 11.8651 61.6518 12.3125H59.3954C59.3954 11.4816 59.585 10.7593 59.9643 10.1456C60.3436 9.53198 60.8656 9.05684 61.5303 8.72019C62.1994 8.38354 62.9664 8.21522 63.8315 8.21522C64.7093 8.21522 65.4806 8.37928 66.1454 8.70741C66.8102 9.03553 67.3258 9.48511 67.6923 10.0561C68.063 10.6272 68.2484 11.2791 68.2484 12.0121C68.2484 12.5022 68.1546 12.9837 67.9671 13.4567C67.7796 13.9297 67.4494 14.4539 66.9764 15.0291C66.5076 15.6044 65.8492 16.3012 65.0012 17.1193L62.7448 19.4141V19.5036H68.4465V21.4851H59.4721ZM81.7861 10.4782L84.0075 14.5413L86.2648 10.4782H89.0094L85.6915 15.9817L89.0667 21.4851H86.3365L84.0075 17.5223L81.7001 21.4851H78.9484L82.302 15.9817L79.0344 10.4782H81.7861Z" fill="#111827"/>
<path fill-rule="evenodd" clip-rule="evenodd" d="M99.6101 9.93497V26.2634V27.5982H100.945H120.688C123.531 27.5982 125.836 25.2932 125.836 22.4497V2.70688V1.37207H124.501H107.542V4.04169H123.167V22.4497C123.167 23.8188 122.057 24.9286 120.688 24.9286H102.28V9.93497H99.6101Z" fill="#111827"/>
<path d="M99.6101 9.93497V8.96124H98.6364V9.93497H99.6101ZM99.6101 27.5982H98.6364V28.572H99.6101V27.5982ZM125.836 1.37207H126.81V0.398348H125.836V1.37207ZM107.542 1.37207V0.398348H106.568V1.37207H107.542ZM107.542 4.04169H106.568V5.01541H107.542V4.04169ZM123.167 4.04169H124.14V3.06797H123.167V4.04169ZM102.28 24.9286H101.306V25.9023H102.28V24.9286ZM102.28 9.93497H103.253V8.96124H102.28V9.93497ZM100.584 26.2634V9.93497H98.6364V26.2634H100.584ZM100.584 27.5982V26.2634H98.6364V27.5982H100.584ZM100.945 26.6245H99.6101V28.572H100.945V26.6245ZM120.688 26.6245H100.945V28.572H120.688V26.6245ZM124.863 22.4497C124.863 24.7554 122.993 26.6245 120.688 26.6245V28.572C124.069 28.572 126.81 25.8309 126.81 22.4497H124.863ZM124.863 2.70688V22.4497H126.81V2.70688H124.863ZM124.863 1.37207V2.70688H126.81V1.37207H124.863ZM124.501 2.34579H125.836V0.398348H124.501V2.34579ZM107.542 2.34579H124.501V0.398348H107.542V2.34579ZM106.568 1.37207V4.04169H108.515V1.37207H106.568ZM123.167 3.06797H107.542V5.01541H123.167V3.06797ZM124.14 22.4497V4.04169H122.193V22.4497H124.14ZM120.688 25.9023C122.595 25.9023 124.14 24.3565 124.14 22.4497H122.193C122.193 23.281 121.519 23.9549 120.688 23.9549V25.9023ZM102.28 25.9023H120.688V23.9549H102.28V25.9023ZM101.306 9.93497V24.9286H103.253V9.93497H101.306ZM102.28 8.96124H99.6101V10.9087H102.28V8.96124Z" fill="#111827"/>
<path d="M138.198 13.6631C135.039 13.6631 132.992 11.4678 132.992 8.07088C132.992 4.70367 135.113 2.46381 138.287 2.46381C140.853 2.46381 142.767 3.962 143.138 6.29086H141.135C140.764 5.03001 139.682 4.28833 138.243 4.28833C136.24 4.28833 134.979 5.74202 134.979 8.05604C134.979 10.3552 136.255 11.8386 138.243 11.8386C139.711 11.8386 140.839 11.0672 141.195 9.86573H143.167C142.752 12.1501 140.764 13.6631 138.198 13.6631ZM143.357 9.8064C143.357 7.52204 145.004 5.94969 147.273 5.94969C149.543 5.94969 151.189 7.52204 151.189 9.8064C151.189 12.0908 149.543 13.6631 147.273 13.6631C145.004 13.6631 143.357 12.0908 143.357 9.8064ZM145.167 9.8064C145.167 11.1414 146.027 12.0463 147.273 12.0463C148.519 12.0463 149.379 11.1414 149.379 9.8064C149.379 8.47138 148.519 7.56654 147.273 7.56654C146.027 7.56654 145.167 8.47138 145.167 9.8064ZM153.617 13.4851H151.808V6.15735H153.469L153.617 7.0177C153.988 6.40952 154.73 5.93485 155.783 5.93485C156.896 5.93485 157.667 6.48369 158.053 7.3292C158.424 6.48369 159.284 5.93485 160.396 5.93485C162.176 5.93485 163.155 7.00286 163.155 8.69388V13.4851H161.361V9.16856C161.361 8.11538 160.797 7.56654 159.937 7.56654C159.061 7.56654 158.394 8.13021 158.394 9.33173V13.4851H156.584V9.15372C156.584 8.13021 156.035 7.58137 155.175 7.58137C154.315 7.58137 153.617 8.14504 153.617 9.33173V13.4851ZM165.926 13.4851H164.116V6.15735H165.777L165.926 7.0177C166.297 6.40952 167.038 5.93485 168.091 5.93485C169.204 5.93485 169.975 6.48369 170.361 7.3292C170.732 6.48369 171.592 5.93485 172.705 5.93485C174.485 5.93485 175.464 7.00286 175.464 8.69388V13.4851H173.669V9.16856C173.669 8.11538 173.105 7.56654 172.245 7.56654C171.37 7.56654 170.702 8.13021 170.702 9.33173V13.4851H168.893V9.15372C168.893 8.13021 168.344 7.58137 167.483 7.58137C166.623 7.58137 165.926 8.14504 165.926 9.33173V13.4851ZM177.329 4.68884C176.706 4.68884 176.217 4.19933 176.217 3.59116C176.217 2.98298 176.706 2.50831 177.329 2.50831C177.923 2.50831 178.412 2.98298 178.412 3.59116C178.412 4.19933 177.923 4.68884 177.329 4.68884ZM176.424 13.4851V6.15735H178.234V13.4851H176.424ZM181.78 13.4851H179.97V7.67037H178.561V6.15735H179.97V3.873H181.78V6.15735H183.204V7.67037H181.78V13.4851ZM132.784 25.2601H134.505C134.519 25.8979 134.994 26.2984 135.825 26.2984C136.67 26.2984 137.13 25.9573 137.13 25.4232C137.13 25.0524 136.937 24.7854 136.285 24.6371L134.964 24.3256C133.644 24.0289 133.006 23.4059 133.006 22.234C133.006 20.7952 134.223 19.9349 135.914 19.9349C137.56 19.9349 138.673 20.8842 138.688 22.3082H136.967C136.952 21.6852 136.537 21.2847 135.84 21.2847C135.128 21.2847 134.712 21.611 134.712 22.1599C134.712 22.5752 135.039 22.8422 135.662 22.9906L136.982 23.3021C138.213 23.5839 138.836 24.1476 138.836 25.2749C138.836 26.7583 137.575 27.6779 135.765 27.6779C133.941 27.6779 132.784 26.6989 132.784 25.2601ZM141.89 27.4851H140.08V21.6704H138.671V20.1574H140.08V17.873H141.89V20.1574H143.314V21.6704H141.89V27.4851ZM148.593 20.1574H150.402V27.4851H148.726L148.593 26.5061C148.147 27.2033 147.198 27.6779 146.219 27.6779C144.528 27.6779 143.534 26.5358 143.534 24.7409V20.1574H145.344V24.1031C145.344 25.4974 145.893 26.0611 146.901 26.0611C148.044 26.0611 148.593 25.3936 148.593 23.9992V20.1574ZM154.322 27.6779C152.201 27.6779 150.88 26.1204 150.88 23.8509C150.88 21.5665 152.215 19.9349 154.426 19.9349C155.449 19.9349 156.354 20.365 156.814 21.0919V16.449H158.609V27.4851H156.947L156.829 26.3429C156.384 27.1884 155.434 27.6779 154.322 27.6779ZM154.722 26.0166C155.983 26.0166 156.799 25.1117 156.799 23.7916C156.799 22.4714 155.983 21.5517 154.722 21.5517C153.461 21.5517 152.69 22.4862 152.69 23.7916C152.69 25.0969 153.461 26.0166 154.722 26.0166ZM160.584 18.6888C159.961 18.6888 159.471 18.1993 159.471 17.5912C159.471 16.983 159.961 16.5083 160.584 16.5083C161.177 16.5083 161.666 16.983 161.666 17.5912C161.666 18.1993 161.177 18.6888 160.584 18.6888ZM159.679 27.4851V20.1574H161.488V27.4851H159.679ZM162.112 23.8064C162.112 21.522 163.759 19.9497 166.028 19.9497C168.298 19.9497 169.944 21.522 169.944 23.8064C169.944 26.0908 168.298 27.6631 166.028 27.6631C163.759 27.6631 162.112 26.0908 162.112 23.8064ZM163.922 23.8064C163.922 25.1414 164.782 26.0463 166.028 26.0463C167.274 26.0463 168.135 25.1414 168.135 23.8064C168.135 22.4714 167.274 21.5665 166.028 21.5665C164.782 21.5665 163.922 22.4714 163.922 23.8064ZM171.33 27.6631C170.678 27.6631 170.129 27.1291 170.129 26.4913C170.129 25.8386 170.678 25.3046 171.33 25.3046C171.983 25.3046 172.532 25.8386 172.532 26.4913C172.532 27.1291 171.983 27.6631 171.33 27.6631Z" fill="#111827"/>
</svg>
