<svg width="21" height="20" viewBox="0 0 21 20" fill="none" xmlns="http://www.w3.org/2000/svg">
<path d="M13.9163 7.87875C13.9253 7.79717 13.9181 7.7146 13.8953 7.63577C13.8724 7.55695 13.8342 7.4834 13.7829 7.41932C13.7316 7.35525 13.6682 7.30191 13.5963 7.26235C13.5243 7.22279 13.4453 7.19778 13.3638 7.18875C13.2822 7.17972 13.1996 7.18685 13.1208 7.20973C13.0419 7.23261 12.9684 7.27079 12.9043 7.3221C12.8403 7.3734 12.7869 7.43682 12.7473 7.50874C12.7078 7.58066 12.6828 7.65967 12.6738 7.74125C12.6226 8.20013 12.4276 8.63107 12.1166 8.97236C11.8057 9.31365 11.3947 9.54779 10.9425 9.64125C10.7801 9.67473 10.6376 9.77138 10.5464 9.90992C10.4552 10.0485 10.4228 10.2176 10.4563 10.38C10.4897 10.5424 10.5864 10.6849 10.7249 10.7761C10.8635 10.8673 11.0326 10.8997 11.195 10.8663C11.9059 10.7194 12.5521 10.3513 13.041 9.8146C13.5298 9.27793 13.8362 8.60027 13.9163 7.87875ZM6.125 1.25C5.95924 1.25 5.80027 1.31585 5.68306 1.43306C5.56585 1.55027 5.5 1.70924 5.5 1.875V8.125C5.49958 9.34313 5.94387 10.5195 6.74943 11.4333C7.555 12.347 8.66642 12.9352 9.875 13.0875V17.5H8C7.83424 17.5 7.67527 17.5658 7.55806 17.6831C7.44085 17.8003 7.375 17.9592 7.375 18.125C7.375 18.2908 7.44085 18.4497 7.55806 18.5669C7.67527 18.6842 7.83424 18.75 8 18.75H13C13.1658 18.75 13.3247 18.6842 13.4419 18.5669C13.5592 18.4497 13.625 18.2908 13.625 18.125C13.625 17.9592 13.5592 17.8003 13.4419 17.6831C13.3247 17.5658 13.1658 17.5 13 17.5H11.125V13.0875C12.3336 12.9352 13.445 12.347 14.2506 11.4333C15.0561 10.5195 15.5004 9.34313 15.5 8.125V1.875C15.5 1.70924 15.4342 1.55027 15.3169 1.43306C15.1997 1.31585 15.0408 1.25 14.875 1.25H6.125ZM6.75 5V2.5H14.25V5H6.75ZM6.75 6.25H14.25V8.125C14.25 9.11956 13.8549 10.0734 13.1517 10.7767C12.4484 11.4799 11.4946 11.875 10.5 11.875C9.50544 11.875 8.55161 11.4799 7.84835 10.7767C7.14509 10.0734 6.75 9.11956 6.75 8.125V6.25Z" fill="white"/>
</svg>
