<svg width="20" height="20" viewBox="0 0 20 20" fill="none" xmlns="http://www.w3.org/2000/svg">
<path d="M2.49995 6.88627V6.87502C2.49994 5.76384 2.82902 4.67756 3.4457 3.75321C4.06238 2.82885 4.93901 2.10786 5.965 1.68117C6.99099 1.25449 8.12037 1.14124 9.21065 1.35571C10.3009 1.57019 11.3033 2.10277 12.0912 2.88627C12.7111 2.58029 13.4036 2.45163 14.0921 2.51453C14.7806 2.57743 15.4383 2.82942 15.9925 3.24268C16.5467 3.65593 16.9759 4.21436 17.2327 4.85625C17.4895 5.49815 17.5638 6.19853 17.4475 6.88002C17.6185 6.8959 17.7844 6.94685 17.9349 7.02972C18.0854 7.11258 18.2172 7.22557 18.322 7.36163C18.4269 7.49769 18.5026 7.6539 18.5444 7.82052C18.5862 7.98713 18.5932 8.16058 18.565 8.33002C18 11.7288 16.6025 13.88 14.375 14.785V15.625C14.375 16.1223 14.1774 16.5992 13.8258 16.9508C13.4741 17.3025 12.9972 17.5 12.5 17.5H7.49995C7.00267 17.5 6.52576 17.3025 6.17413 16.9508C5.82249 16.5992 5.62495 16.1223 5.62495 15.625V14.785C3.39745 13.88 1.99995 11.7288 1.43495 8.33002C1.40768 8.16508 1.41378 7.99634 1.45288 7.83379C1.49198 7.67124 1.56329 7.51819 1.66259 7.3837C1.76189 7.2492 1.88717 7.13598 2.031 7.05076C2.17483 6.96553 2.33429 6.91003 2.49995 6.88752V6.88627ZM3.74995 6.87502H4.99995C4.99995 6.04622 5.32919 5.25136 5.91524 4.66531C6.50129 4.07926 7.29615 3.75002 8.12495 3.75002C8.95375 3.75002 9.74861 4.07926 10.3347 4.66531C10.9207 5.25136 11.25 6.04622 11.25 6.87502H12.5C12.5 5.7147 12.039 4.6019 11.2185 3.78143C10.3981 2.96096 9.28527 2.50002 8.12495 2.50002C6.96463 2.50002 5.85183 2.96096 5.03136 3.78143C4.21089 4.6019 3.74995 5.7147 3.74995 6.87502ZM6.24995 6.87502H9.99995C9.99995 6.37774 9.80241 5.90083 9.45078 5.5492C9.09915 5.19757 8.62223 5.00002 8.12495 5.00002C7.62767 5.00002 7.15076 5.19757 6.79913 5.5492C6.44749 5.90083 6.24995 6.37774 6.24995 6.87502ZM14.8325 6.87502H16.1712C16.2656 6.50561 16.2744 6.11953 16.1969 5.74621C16.1195 5.37288 15.9578 5.02216 15.7243 4.72077C15.4908 4.41938 15.1916 4.17527 14.8494 4.00704C14.5073 3.83881 14.1312 3.75091 13.75 3.75002C13.45 3.75002 13.165 3.80252 12.9 3.89877C13.1212 4.25377 13.3037 4.63627 13.4437 5.03752C13.6818 4.97847 13.932 4.99063 14.1632 5.07249C14.3944 5.15435 14.5965 5.3023 14.7444 5.49799C14.8923 5.69369 14.9795 5.9285 14.9952 6.1733C15.0108 6.41809 14.9542 6.66209 14.8325 6.87502ZM13.125 15H6.87495V15.625C6.87495 15.7908 6.9408 15.9498 7.05801 16.067C7.17522 16.1842 7.33419 16.25 7.49995 16.25H12.5C12.6657 16.25 12.8247 16.1842 12.9419 16.067C13.0591 15.9498 13.125 15.7908 13.125 15.625V15ZM6.43495 13.75H13.565C15.5475 13.1125 16.8025 11.31 17.3325 8.12502H2.66745C3.19745 11.31 4.45245 13.1125 6.43495 13.75Z" fill="white"/>
</svg>
